<mxfile host="app.diagrams.net" modified="2023-05-12T14:44:48.773Z" agent="Mozilla/5.0 (X11; Linux x86_64) AppleWebKit/537.36 (KHTML, like Gecko) Chrome/112.0.0.0 Safari/537.36" etag="r4e_0oT5Tc7IaHzjnnmB" version="21.2.9" type="github">
  <diagram name="Page-1" id="Miv_Dd90Mh6gZaN-LzcN">
    <mxGraphModel dx="1399" dy="785" grid="1" gridSize="10" guides="1" tooltips="1" connect="1" arrows="1" fold="1" page="1" pageScale="1" pageWidth="850" pageHeight="1100" math="0" shadow="0">
      <root>
        <mxCell id="0" />
        <mxCell id="1" parent="0" />
        <mxCell id="fsWSTKAM8Xr6zdor2zZE-2" style="edgeStyle=orthogonalEdgeStyle;rounded=0;orthogonalLoop=1;jettySize=auto;html=1;entryX=0.5;entryY=0;entryDx=0;entryDy=0;" edge="1" parent="1" source="fsWSTKAM8Xr6zdor2zZE-1" target="fsWSTKAM8Xr6zdor2zZE-3">
          <mxGeometry relative="1" as="geometry">
            <mxPoint x="600" y="370" as="targetPoint" />
          </mxGeometry>
        </mxCell>
        <mxCell id="fsWSTKAM8Xr6zdor2zZE-1" value="" style="whiteSpace=wrap;html=1;aspect=fixed;" vertex="1" parent="1">
          <mxGeometry x="190" y="70" width="70" height="70" as="geometry" />
        </mxCell>
        <mxCell id="fsWSTKAM8Xr6zdor2zZE-3" value="" style="ellipse;whiteSpace=wrap;html=1;aspect=fixed;" vertex="1" parent="1">
          <mxGeometry x="530" y="210" width="80" height="80" as="geometry" />
        </mxCell>
      </root>
    </mxGraphModel>
  </diagram>
</mxfile>
